<svg xmlns="http://www.w3.org/2000/svg" viewBox="0 0 240.9 84.5"><path d="M126.4 44.9c0-5.7.1-12.5.2-16.3h-.3c-1.5 6.9-4.9 19.3-7.8 28.8h-5.9c-2.2-8-5.7-22.1-7-28.9h-.3c.3 3.9.4 11.2.4 16.9v11.9h-6.3V23.9h10.2c2.4 7.8 5.4 19.5 6.3 24.6h.1c.7-4.3 4.6-16.7 7.1-24.6h9.8v33.5h-6.6V44.9zm15.2 1.4c0 3.1 1.2 6.4 4.9 6.4 3 0 4-1.9 4.3-3h6.5c-1.2 4.2-4.2 8.2-11 8.2-8.1 0-11.4-5.5-11.4-13.1 0-6.3 3.1-13.2 11.7-13.2 8.5 0 11.1 6.1 11.1 12.6 0 .3 0 1.7-.1 2.1h-16zm9.6-4.3c-.1-2.9-1.3-5.3-4.7-5.3-3.8 0-4.7 3.1-4.8 5.3h9.5zm31.9-20.1v28.5c0 3 0 5.6.1 7.1h-6.5c-.1-.7-.2-2.2-.2-3-1.2 2.2-3.1 3.5-7.1 3.5-6.4 0-9.8-5.3-9.8-13.1 0-7.6 4.1-13.2 10.9-13.2 3.8 0 5.4 1.3 6 2.3V21.9h6.6zm-16.7 22.7c0 4.7 1.6 7.9 5.2 7.9 4.3 0 5.2-2.9 5.2-7.9 0-5.4-1.1-7.6-5-7.6-3.3.1-5.4 2.6-5.4 7.6zM185 21.9h6.6V28H185v-6.1zm0 10.2h6.6v25.3H185V32.1zm32.2-10.2v28.5c0 3 0 5.6.1 7.1h-6.5c-.1-.7-.2-2.2-.2-3-1.2 2.2-3.1 3.5-7.1 3.5-6.4 0-9.8-5.3-9.8-13.1 0-7.6 4.1-13.2 10.9-13.2 3.8 0 5.4 1.3 6 2.3V21.9h6.6zm-16.7 22.7c0 4.7 1.6 7.9 5.2 7.9 4.3 0 5.2-2.9 5.2-7.9 0-5.4-1.1-7.6-5-7.6-3.3.1-5.4 2.6-5.4 7.6zm40.1 6.3c0 1.7.1 4.8.3 6.6h-5.8c-.2-.8-.3-2.3-.4-3.1-1.1 2.1-3.4 3.5-7.1 3.5-6.3 0-8.5-3.9-8.5-7.7 0-4.6 3.2-8.3 11.9-8.3h3V40c0-2.1-.6-3.7-3.6-3.7-2.9 0-3.6 1.5-3.9 3.4h-6.4c.3-4 2.7-8 10.4-8 6 0 10 2.1 10 8.3v10.9zm-6.3-4.8h-3.1c-4.5 0-5.4 1.8-5.4 3.5s1 3.2 3.6 3.2c4 0 4.9-2.6 4.9-6.2v-.5zM42.2 84.5C18.9 84.5 0 65.5 0 42.2 0 18.9 18.9 0 42.2 0c23.3 0 42.2 18.9 42.2 42.2.1 23.3-18.9 42.3-42.2 42.3zm0-78.3c-19.9 0-36 16.2-36 36 0 19.9 16.2 36 36 36s36-16.2 36-36c.1-19.8-16.1-36-36-36z" fill="#fff"/><path d="M28.9 24.1l-9.1 34.1H26l6-22.5-3.1-11.6zm35.8 34L55 22h-6.2l-6.5 24.4c-.2-.3-6.3-23.2-6.6-24.4h-6.2l9.7 36.1h6.2l6.5-24.7 6.6 24.7h6.2z" fill-rule="evenodd" clip-rule="evenodd" fill="#fff"/></svg>